<?xml version="1.0" encoding="utf-8"?>
<!-- Fork & Knife icon by Arthur Shlain from Usefulicons.com -->
<svg xmlns="http://www.w3.org/2000/svg" xmlns:xlink="http://www.w3.org/1999/xlink" xml:space="preserve" version="1.1" x="0px" y="0px" viewBox="0 0 100 100" width="400px" height="400px"><path d="M70,10C64.477,10,60,14.477,60,20L60,45C60,50.523,64.477,55,70,55L70,85C70,87.761,72.239,90,75,90S80,87.761,80,85L80,20C80,14.477,75.523,10,70,10Z" stroke="none"></path><path d="M42.5,10C41.119,10,40,11.119,40,12.5L40,27.5C40,28.881,38.881,30,37.5,30S35,28.881,35,27.5L35,12.5C35,11.119,33.881,10,32.5,10S30,11.119,30,12.5L30,27.5C30,28.881,28.881,30,27.5,30S25,28.881,25,27.5L25,12.5C25,11.119,23.881,10,22.5,10S20,11.119,20,12.5L20,35C20,39.658,23.189,43.56,27.5,44.672L27.5,85C27.5,87.761,29.739,90,32.5,90S37.5,87.761,37.5,85L37.5,44.672C41.811,43.56,45,39.658,45,35L45,12.5C45,11.119,43.881,10,42.5,10Z" stroke="none"></path></svg>